<svg xmlns="http://www.w3.org/2000/svg" xmlns:xlink="http://www.w3.org/1999/xlink" viewBox="0 0 60 60"><defs><style>.cls-1,.cls-2{fill:none;}.cls-1{clip-rule:evenodd;}.cls-3{clip-path:url(#clip-path);}.cls-4{clip-path:url(#clip-path-2);}.cls-5{fill:#fff;}.cls-6{clip-path:url(#clip-path-3);}</style><clipPath id="clip-path" transform="translate(-1170 -7311.5)"><path class="cls-1" d="M1177.27,7341.5a22.73,22.73,0,1,1,22.73,22.73A22.73,22.73,0,0,1,1177.27,7341.5Zm47.73,0a25,25,0,1,0-25,25A25,25,0,0,0,1225,7341.5Z"/></clipPath><clipPath id="clip-path-2" transform="translate(-1170 -7311.5)"><rect class="cls-2" width="1920" height="7575"/></clipPath><clipPath id="clip-path-3" transform="translate(-1170 -7311.5)"><path class="cls-1" d="M1201,7355.93V7341.5h4.76l.75-4.78H1201v-2.4c0-1.25.41-2.44,2.2-2.44h3.58v-4.77h-5.08c-4.27,0-5.44,2.81-5.44,6.71v2.89h-2.93v4.78h2.93v14.43Z"/></clipPath></defs><title>Ресурс 5</title><g id="Слой_2" data-name="Слой 2"><g id="Слой_1-2" data-name="Слой 1"><g class="cls-3"><g class="cls-4"><rect class="cls-5" width="60" height="60"/></g></g><g class="cls-6"><g class="cls-4"><rect class="cls-5" x="18.29" y="10.61" width="23.45" height="38.82"/></g></g></g></g></svg>