<svg xmlns="http://www.w3.org/2000/svg" xmlns:xlink="http://www.w3.org/1999/xlink" viewBox="0 0 60 60"><defs><style>.cls-1,.cls-2{fill:none;}.cls-1{clip-rule:evenodd;}.cls-3{clip-path:url(#clip-path);}.cls-4{clip-path:url(#clip-path-2);}.cls-5{fill:#fff;}.cls-6{clip-path:url(#clip-path-3);}</style><clipPath id="clip-path"><path class="cls-1" d="M7.27,30A22.73,22.73,0,1,1,30,52.73,22.73,22.73,0,0,1,7.27,30ZM55,30A25,25,0,1,0,30,55,25,25,0,0,0,55,30Z"/></clipPath><clipPath id="clip-path-2"><rect class="cls-2" x="5" y="5" width="50" height="50"/></clipPath><clipPath id="clip-path-3"><path class="cls-1" d="M30.45,24.93A4.45,4.45,0,1,0,35,29.38,4.52,4.52,0,0,0,30.45,24.93Zm8.82,2.74h-2a6.69,6.69,0,0,1,.29,2,7.11,7.11,0,0,1-14.21,0,6.69,6.69,0,0,1,.29-2h-2.1v9.66a.91.91,0,0,0,.91.91H38.37a.91.91,0,0,0,.91-.91V27.67Zm-3.62-7.13a1,1,0,0,0-1,1V24a1,1,0,0,0,1,1h2.58a1,1,0,0,0,1-1V21.57a1,1,0,0,0-1-1ZM21.93,18h17a2.86,2.86,0,0,1,2.93,2.93v17a2.86,2.86,0,0,1-2.93,2.93h-17A2.86,2.86,0,0,1,19,37.92v-17A2.86,2.86,0,0,1,21.93,18Z"/></clipPath></defs><title>Ресурс 4</title><g id="Слой_2" data-name="Слой 2"><g id="Слой_1-2" data-name="Слой 1"><g class="cls-3"><g class="cls-4"><rect class="cls-5" width="60" height="60"/></g></g><g class="cls-6"><g class="cls-4"><rect class="cls-5" x="14" y="13" width="32.86" height="32.86"/></g></g></g></g></svg>