<svg xmlns="http://www.w3.org/2000/svg" xmlns:xlink="http://www.w3.org/1999/xlink" viewBox="0 0 60 60"><defs><style>.cls-1,.cls-2{fill:none;}.cls-1{clip-rule:evenodd;}.cls-3{clip-path:url(#clip-path);}.cls-4{clip-path:url(#clip-path-2);}.cls-5{fill:#fff;}.cls-6{clip-path:url(#clip-path-3);}</style><clipPath id="clip-path" transform="translate(-1330 -7311.5)"><path class="cls-1" d="M1337.27,7341.5a22.73,22.73,0,1,1,22.73,22.73A22.73,22.73,0,0,1,1337.27,7341.5Zm47.73,0a25,25,0,1,0-25,25A25,25,0,0,0,1385,7341.5Z"/></clipPath><clipPath id="clip-path-2" transform="translate(-1330 -7311.5)"><rect class="cls-2" width="1920" height="7575"/></clipPath><clipPath id="clip-path-3" transform="translate(-1330 -7311.5)"><path class="cls-1" d="M1358.67,7339.35h2.93q3-.05,3-2.39a2.2,2.2,0,0,0-.76-1.88,4,4,0,0,0-2.39-.57h-2.77Zm0,2.79v5.18h3.39a3.27,3.27,0,0,0,2.18-.67,2.28,2.28,0,0,0,.78-1.84q0-2.64-2.73-2.68Zm-4,8.36v-19.2h6.72a8.83,8.83,0,0,1,5.3,1.34,4.58,4.58,0,0,1,1.81,3.92,4.33,4.33,0,0,1-.72,2.49,4.18,4.18,0,0,1-2,1.58,4.05,4.05,0,0,1,2.33,1.49,4.4,4.4,0,0,1,.85,2.74,5.07,5.07,0,0,1-1.77,4.19,8,8,0,0,1-5,1.45Z"/></clipPath></defs><title>Ресурс 1</title><g id="Слой_2" data-name="Слой 2"><g id="Слой_1-2" data-name="Слой 1"><g class="cls-3"><g class="cls-4"><rect class="cls-5" width="60" height="60"/></g></g><g class="cls-6"><g class="cls-4"><rect class="cls-5" x="19.71" y="14.8" width="24.26" height="29.2"/></g></g></g></g></svg>