<svg xmlns="http://www.w3.org/2000/svg" xmlns:xlink="http://www.w3.org/1999/xlink" viewBox="0 0 60 60"><defs><style>.cls-1,.cls-2{fill:none;}.cls-1{clip-rule:evenodd;}.cls-3{clip-path:url(#clip-path);}.cls-4{clip-path:url(#clip-path-2);}.cls-5{fill:#fff;}.cls-6{clip-path:url(#clip-path-3);}</style><clipPath id="clip-path" transform="translate(-1490 -7311.5)"><path class="cls-1" d="M1530.72,7336.53q0-.38,0-.75a11.35,11.35,0,0,0,2.76-3,10.57,10.57,0,0,1-3.17.87,5.67,5.67,0,0,0,2.43-3.17,10.61,10.61,0,0,1-3.51,1.35,5.49,5.49,0,0,0-4-1.9,5.58,5.58,0,0,0-5.52,5.76,6.1,6.1,0,0,0,.14,1.33,15.55,15.55,0,0,1-11.39-6.29,6.19,6.19,0,0,0,1.71,7.89,5.29,5.29,0,0,1-2.5-.77v.07a5.87,5.87,0,0,0,4.43,5.81,5.22,5.22,0,0,1-1.45.2,5,5,0,0,1-1-.11,5.61,5.61,0,0,0,5.16,4.11,10.66,10.66,0,0,1-6.86,2.5,10.53,10.53,0,0,1-1.32-.08A14.9,14.9,0,0,0,1515,7353C1525.17,7353,1530.72,7344.2,1530.72,7336.53Z"/></clipPath><clipPath id="clip-path-2" transform="translate(-1490 -7311.5)"><rect class="cls-2" width="1920" height="7575"/></clipPath><clipPath id="clip-path-3" transform="translate(-1490 -7311.5)"><path class="cls-1" d="M1497.27,7341.5a22.73,22.73,0,1,1,22.73,22.73A22.73,22.73,0,0,1,1497.27,7341.5Zm47.73,0a25,25,0,1,0-25,25A25,25,0,0,0,1545,7341.5Z"/></clipPath></defs><title>Ресурс 2</title><g id="Слой_2" data-name="Слой 2"><g id="Слой_1-2" data-name="Слой 1"><g class="cls-3"><g class="cls-4"><rect class="cls-5" x="11.54" y="13.46" width="36.92" height="33.08"/></g></g><g class="cls-6"><g class="cls-4"><rect class="cls-5" width="60" height="60"/></g></g></g></g></svg>